<?xml version="1.0" standalone="no"?>
<!DOCTYPE svg PUBLIC "-//W3C//DTD SVG 20010904//EN"
 "http://www.w3.org/TR/2001/REC-SVG-20010904/DTD/svg10.dtd">
<svg version="1.0" xmlns="http://www.w3.org/2000/svg"
 width="512.000000pt" height="512.000000pt" viewBox="0 0 512.000000 512.000000"
 preserveAspectRatio="xMidYMid meet">
<metadata>
Created by potrace 1.14, written by Peter Selinger 2001-2017
</metadata>
<g transform="translate(0.000000,512.000000) scale(0.100000,-0.100000)"
fill="#000000" stroke="none">
<path d="M415 5110 c-181 -37 -331 -171 -391 -350 -18 -53 -19 -134 -19 -2205
l0 -2150 27 -68 c61 -153 175 -262 328 -313 53 -18 134 -19 2205 -19 l2150 0
68 27 c153 61 262 175 313 328 18 53 19 134 19 2205 l0 2150 -27 68 c-60 148
-166 253 -314 310 l-59 22 -2130 1 c-1172 1 -2148 -2 -2170 -6z m3121 -1183
c23 -27 24 -35 24 -160 0 -128 -1 -134 -29 -182 -16 -27 -358 -504 -759 -1060
l-730 -1010 746 -5 c785 -5 778 -5 802 -50 5 -10 10 -71 10 -135 0 -110 -1
-117 -25 -140 l-24 -25 -986 0 -986 0 -24 25 c-24 23 -25 29 -25 160 0 99 4
144 14 164 8 15 355 493 771 1062 l756 1034 -730 5 -730 5 -23 23 c-21 20 -23
34 -26 128 -3 68 0 116 8 135 26 61 -24 59 1003 56 l939 -2 24 -28z"/>
</g>
</svg>
